HIERARCHY
ROOT Root
{
  OFFSET 0.0 0.0 0.0
  CHANNELS 6 Xposition Yposition Zposition Zrotation Yrotation Xrotation
  JOINT Hips
  {
    OFFSET 0.0 100.0 0.0
    CHANNELS 6 Xposition Yposition Zposition Zrotation Yrotation Xrotation
    JOINT Spine1
    {
      OFFSET 5.003913 -0.037094 -0.013727
      CHANNELS 3 Zrotation Yrotation Xrotation
      JOINT Spine2
      {
        OFFSET 7.125363 -1e-06 0.0
        CHANNELS 3 Zrotation Yrotation Xrotation
        JOINT Chest
        {
          OFFSET 7.594027 1e-06 0.0
          CHANNELS 3 Zrotation Yrotation Xrotation
          JOINT Neck1
          {
            OFFSET 26.313086 -0.460272 -0.181672
            CHANNELS 3 Zrotation Yrotation Xrotation
            JOINT Neck2
            {
              OFFSET 8.045911 0.0 0.0
              CHANNELS 3 Zrotation Yrotation Xrotation
              JOINT Head
              {
                OFFSET 6.432774 0.0 0.0
                CHANNELS 3 Zrotation Yrotation Xrotation
                JOINT HeadEnd
                {
                  OFFSET 16.169773 0.06451 0.00362
                  CHANNELS 3 Zrotation Yrotation Xrotation
                }
                JOINT Jaw
                {
                  OFFSET 0.108741 3.12938 0.002639
                  CHANNELS 3 Zrotation Yrotation Xrotation
                }
                JOINT LeftEye
                {
                  OFFSET 4.45173 8.166359 3.206392
                  CHANNELS 3 Zrotation Yrotation Xrotation
                }
                JOINT RightEye
                {
                  OFFSET 4.436895 8.135758 -3.222429
                  CHANNELS 3 Zrotation Yrotation Xrotation
                }
              }
            }
          }
          JOINT LeftShoulder
          {
            OFFSET 23.218927 5.195579 1.621656
            CHANNELS 3 Zrotation Yrotation Xrotation
            JOINT LeftArm
            {
              OFFSET 15.902118 2e-06 -2e-06
              CHANNELS 3 Zrotation Yrotation Xrotation
              JOINT LeftForeArm
              {
                OFFSET 28.739307 0.0 -1e-06
                CHANNELS 3 Zrotation Yrotation Xrotation
                JOINT LeftHand
                {
                  OFFSET 27.093981 -4e-06 0.0
                  CHANNELS 3 Zrotation Yrotation Xrotation
                  JOINT LeftHandThumb1
                  {
                    OFFSET 2.276781 3.380274 0.83384
                    CHANNELS 3 Zrotation Yrotation Xrotation
                    JOINT LeftHandThumb2
                    {
                      OFFSET 4.705309 -1e-06 -1e-06
                      CHANNELS 3 Zrotation Yrotation Xrotation
                      JOINT LeftHandThumb3
                      {
                        OFFSET 2.798515 0.0 3e-06
                        CHANNELS 3 Zrotation Yrotation Xrotation
                        JOINT LeftHandThumbEnd
                        {
                          OFFSET 3.180793 4e-06 -4e-06
                          CHANNELS 3 Zrotation Yrotation Xrotation
                        }
                      }
                    }
                  }
                  JOINT LeftHandIndex1
                  {
                    OFFSET 3.247786 2.352677 0.137192
                    CHANNELS 3 Zrotation Yrotation Xrotation
                    JOINT LeftHandIndex2
                    {
                      OFFSET 6.367095 1e-06 0.0
                      CHANNELS 3 Zrotation Yrotation Xrotation
                      JOINT LeftHandIndex3
                      {
                        OFFSET 3.662364 0.0 0.0
                        CHANNELS 3 Zrotation Yrotation Xrotation
                        JOINT LeftHandIndex4
                        {
                          OFFSET 2.329242 4e-06 -4e-06
                          CHANNELS 3 Zrotation Yrotation Xrotation
                          JOINT LeftHandIndexEnd
                          {
                            OFFSET 2.767823 1e-06 0.0
                            CHANNELS 3 Zrotation Yrotation Xrotation
                          }
                        }
                      }
                    }
                  }
                  JOINT LeftHandMiddle1
                  {
                    OFFSET 3.163612 0.945023 -0.406112
                    CHANNELS 3 Zrotation Yrotation Xrotation
                    JOINT LeftHandMiddle2
                    {
                      OFFSET 6.276789 3e-06 0.0
                      CHANNELS 3 Zrotation Yrotation Xrotation
                      JOINT LeftHandMiddle3
                      {
                        OFFSET 4.35652 -1e-06 4e-06
                        CHANNELS 3 Zrotation Yrotation Xrotation
                        JOINT LeftHandMiddle4
                        {
                          OFFSET 2.996877 0.0 8e-06
                          CHANNELS 3 Zrotation Yrotation Xrotation
                          JOINT LeftHandMiddleEnd
                          {
                            OFFSET 2.323256 3e-06 -4e-06
                            CHANNELS 3 Zrotation Yrotation Xrotation
                          }
                        }
                      }
                    }
                  }
                  JOINT LeftHandRing1
                  {
                    OFFSET 2.882606 -0.309162 0.107445
                    CHANNELS 3 Zrotation Yrotation Xrotation
                    JOINT LeftHandRing2
                    {
                      OFFSET 6.033198 0.0 4e-06
                      CHANNELS 3 Zrotation Yrotation Xrotation
                      JOINT LeftHandRing3
                      {
                        OFFSET 4.350578 3e-06 0.0
                        CHANNELS 3 Zrotation Yrotation Xrotation
                        JOINT LeftHandRing4
                        {
                          OFFSET 2.651321 2e-06 -7e-06
                          CHANNELS 3 Zrotation Yrotation Xrotation
                          JOINT LeftHandRingEnd
                          {
                            OFFSET 1.937663 1e-06 -4e-06
                            CHANNELS 3 Zrotation Yrotation Xrotation
                          }
                        }
                      }
                    }
                  }
                  JOINT LeftHandPinky1
                  {
                    OFFSET 2.865315 -1.525436 0.575687
                    CHANNELS 3 Zrotation Yrotation Xrotation
                    JOINT LeftHandPinky2
                    {
                      OFFSET 5.54936 1e-06 -8e-06
                      CHANNELS 3 Zrotation Yrotation Xrotation
                      JOINT LeftHandPinky3
                      {
                        OFFSET 3.070974 0.0 -4e-06
                        CHANNELS 3 Zrotation Yrotation Xrotation
                        JOINT LeftHandPinky4
                        {
                          OFFSET 1.549672 1e-06 0.0
                          CHANNELS 3 Zrotation Yrotation Xrotation
                          JOINT LeftHandPinkyEnd
                          {
                            OFFSET 1.952123 0.0 0.0
                            CHANNELS 3 Zrotation Yrotation Xrotation
                          }
                        }
                      }
                    }
                  }
                }
              }
            }
          }
          JOINT RightShoulder
          {
            OFFSET 23.161716 5.296122 -1.380114
            CHANNELS 3 Zrotation Yrotation Xrotation
            JOINT RightArm
            {
              OFFSET -16.027195 -2e-06 1.1e-05
              CHANNELS 3 Zrotation Yrotation Xrotation
              JOINT RightForeArm
              {
                OFFSET -28.736639 4e-06 2e-06
                CHANNELS 3 Zrotation Yrotation Xrotation
                JOINT RightHand
                {
                  OFFSET -27.133619 6e-06 0.0
                  CHANNELS 3 Zrotation Yrotation Xrotation
                  JOINT RightHandThumb1
                  {
                    OFFSET -2.274328 -3.351035 -0.83067
                    CHANNELS 3 Zrotation Yrotation Xrotation
                    JOINT RightHandThumb2
                    {
                      OFFSET -4.703594 -3e-06 2e-06
                      CHANNELS 3 Zrotation Yrotation Xrotation
                      JOINT RightHandThumb3
                      {
                        OFFSET -2.794935 -4e-06 -3e-06
                        CHANNELS 3 Zrotation Yrotation Xrotation
                        JOINT RightHandThumbEnd
                        {
                          OFFSET -3.183852 4e-06 1e-06
                          CHANNELS 3 Zrotation Yrotation Xrotation
                        }
                      }
                    }
                  }
                  JOINT RightHandIndex1
                  {
                    OFFSET -3.253496 -2.33755 -0.127667
                    CHANNELS 3 Zrotation Yrotation Xrotation
                    JOINT RightHandIndex2
                    {
                      OFFSET -6.344434 0.0 0.0
                      CHANNELS 3 Zrotation Yrotation Xrotation
                      JOINT RightHandIndex3
                      {
                        OFFSET -3.654871 0.0 -8e-06
                        CHANNELS 3 Zrotation Yrotation Xrotation
                        JOINT RightHandIndex4
                        {
                          OFFSET -2.327586 -1e-06 0.0
                          CHANNELS 3 Zrotation Yrotation Xrotation
                          JOINT RightHandIndexEnd
                          {
                            OFFSET -2.770001 3e-06 8e-06
                            CHANNELS 3 Zrotation Yrotation Xrotation
                          }
                        }
                      }
                    }
                  }
                  JOINT RightHandMiddle1
                  {
                    OFFSET -3.168223 -0.944764 0.411762
                    CHANNELS 3 Zrotation Yrotation Xrotation
                    JOINT RightHandMiddle2
                    {
                      OFFSET -6.266691 -1e-06 -4e-06
                      CHANNELS 3 Zrotation Yrotation Xrotation
                      JOINT RightHandMiddle3
                      {
                        OFFSET -4.348901 0.0 0.0
                        CHANNELS 3 Zrotation Yrotation Xrotation
                        JOINT RightHandMiddle4
                        {
                          OFFSET -3.00024 2e-06 -4e-06
                          CHANNELS 3 Zrotation Yrotation Xrotation
                          JOINT RightHandMiddleEnd
                          {
                            OFFSET -2.321477 -4e-06 -4e-06
                            CHANNELS 3 Zrotation Yrotation Xrotation
                          }
                        }
                      }
                    }
                  }
                  JOINT RightHandRing1
                  {
                    OFFSET -2.885654 0.293261 -0.119232
                    CHANNELS 3 Zrotation Yrotation Xrotation
                    JOINT RightHandRing2
                    {
                      OFFSET -6.032835 -1e-06 -4e-06
                      CHANNELS 3 Zrotation Yrotation Xrotation
                      JOINT RightHandRing3
                      {
                        OFFSET -4.33881 0.0 -4e-06
                        CHANNELS 3 Zrotation Yrotation Xrotation
                        JOINT RightHandRing4
                        {
                          OFFSET -2.654903 -4e-06 -4e-06
                          CHANNELS 3 Zrotation Yrotation Xrotation
                          JOINT RightHandRingEnd
                          {
                            OFFSET -1.935122 0.0 4e-06
                            CHANNELS 3 Zrotation Yrotation Xrotation
                          }
                        }
                      }
                    }
                  }
                  JOINT RightHandPinky1
                  {
                    OFFSET -2.866241 1.503904 -0.60527
                    CHANNELS 3 Zrotation Yrotation Xrotation
                    JOINT RightHandPinky2
                    {
                      OFFSET -5.553177 -2e-06 0.0
                      CHANNELS 3 Zrotation Yrotation Xrotation
                      JOINT RightHandPinky3
                      {
                        OFFSET -3.062664 -1e-06 -4e-06
                        CHANNELS 3 Zrotation Yrotation Xrotation
                        JOINT RightHandPinky4
                        {
                          OFFSET -1.546529 2e-06 4e-06
                          CHANNELS 3 Zrotation Yrotation Xrotation
                          JOINT RightHandPinkyEnd
                          {
                            OFFSET -1.952341 0.0 -4e-06
                            CHANNELS 3 Zrotation Yrotation Xrotation
                          }
                        }
                      }
                    }
                  }
                }
              }
            }
          }
        }
      }
    }
    JOINT LeftLeg
    {
      OFFSET -8.443107 2.567604 10.043214
      CHANNELS 3 Zrotation Yrotation Xrotation
      JOINT LeftShin
      {
        OFFSET 43.229198 1e-06 -1e-06
        CHANNELS 3 Zrotation Yrotation Xrotation
        JOINT LeftFoot
        {
          OFFSET 42.298611 1e-06 1e-06
          CHANNELS 3 Zrotation Yrotation Xrotation
          JOINT LeftToeBase
          {
            OFFSET 14.165858 1e-06 0.0
            CHANNELS 3 Zrotation Yrotation Xrotation
            JOINT LeftToeEnd
            {
              OFFSET 6.7141 -0.234461 0.0
              CHANNELS 3 Zrotation Yrotation Xrotation
            }
          }
        }
      }
    }
    JOINT RightLeg
    {
      OFFSET -8.303923 2.592729 -10.047278
      CHANNELS 3 Zrotation Yrotation Xrotation
      JOINT RightShin
      {
        OFFSET -43.369682 0.0 1e-06
        CHANNELS 3 Zrotation Yrotation Xrotation
        JOINT RightFoot
        {
          OFFSET -42.260784 4e-06 2e-06
          CHANNELS 3 Zrotation Yrotation Xrotation
          JOINT RightToeBase
          {
            OFFSET -14.222245 -2e-06 -1e-06
            CHANNELS 3 Zrotation Yrotation Xrotation
            JOINT RightToeEnd
            {
              OFFSET -6.660062 0.232574 -2e-06
              CHANNELS 3 Zrotation Yrotation Xrotation
            }
          }
        }
      }
    }
  }
}
MOTION
Frames: 4
Frame Time: 0.03333333333333333
0.0 0.0 0.0 0.0 -0.0 0.0 1.681955 50.747162 48.785194 88.856316 -4.637304 95.601677 -3.803733 0.631607 -0.031545 -12.049026 -0.129435 -0.506087 20.804054 1.644206 -1.750401 54.520351 1.087275 1.100944 -2.796977 0.08455 1.748511 -22.736214 3.532305 -0.389235 7e-06 -0.0 -0.0 -0.136299 -0.092819 0.166222 -0.118928 -0.098237 0.13711 -0.129968 -0.089365 0.200177 -122.968445 -72.828903 142.356674 58.066719 -46.705509 -3.512781 31.134235 0.610213 0.457488 -10.649883 -4.926872 -3.396928 17.636627 -26.322735 52.411205 -19.466663 -14.395597 29.410395 0.0 -8.774822 -0.0 16.3461 -18.169071 6.022316 -0.609777 -1.795654 -3.889328 -4.807091 -11.046814 -2.937854 3e-06 -20.976025 2e-06 -5.01997 -25.033566 -4.031885 6e-06 1e-06 -1e-06 -10.634535 -5.686972 -3.565586 10.573275 -17.922953 -3.113901 4e-06 -13.821213 -3e-06 -0.501777 -31.181511 -4.027019 -11.302756 -60.111675 6.600097 -13.982717 -7.1502 -2.875042 13.772733 -8.401493 -3.218242 0.347735 -34.211555 0.771652 -0.963029 -17.733372 2.621017 2e-06 1e-06 -1e-06 -17.346422 -20.095221 -4.20178 21.757561 -1.638376 3.866428 2e-06 -6.338824 -1e-06 -1.697589 -22.591751 -6.194009 1e-06 -3e-06 -0.0 108.148247 -80.975349 87.978935 69.292976 -61.117092 -29.101309 26.412901 -0.711951 0.123278 5.203568 -7.431399 16.044724 22.182116 -20.375893 49.933319 -16.701818 -16.743528 28.47653 -4e-06 -12.6906 0.0 16.323044 -18.077332 2.463974 -0.105919 -1.513856 -4.275881 -5.039041 -5.612873 -2.953554 4e-06 -11.020521 -2e-06 -6.111293 -15.895334 -3.840472 0.0 0.0 0.0 -10.283369 -5.680288 -4.341838 11.028293 -11.302406 -2.372634 -1.384267 -14.238583 -6.320122 -0.625435 -26.924194 -3.827603 -4.616704 -50.422409 -3.868463 -13.708522 -7.363474 -3.720941 18.141146 -14.052739 -3.242676 6e-06 -18.787268 -0.0 -0.429708 -8.456043 2.555502 -0.0 -1e-06 -0.0 -15.923532 -20.094482 -5.473586 30.419207 -7.190827 1.735923 5e-06 -8.162927 -3e-06 -1.861902 -22.861467 -6.167938 -1e-06 -2e-06 -1e-06 172.197052 -12.968887 -1.688817 124.564125 -0.429404 -0.186158 -120.331581 11.592668 -12.863236 -19.9825 1.854901 2.143745 -1.000001 0.0 0.0 -8.992106 -11.073233 -1.604142 125.552986 -0.261871 0.105871 -120.068741 11.160984 -4.030148 -22.384056 0.977171 1.716845 -1.000002 0.0 -0.0 
0.0 0.0 0.0 0.0 -0.0 0.0 1.716206 50.740242 48.876961 88.842133 -4.641654 95.661118 -3.924281 0.626504 -0.011769 -12.116133 -0.113035 -0.440141 20.558992 1.584919 -1.757268 53.595165 0.80252 1.152909 -2.809138 0.050463 1.659325 -22.907654 3.530766 -0.523163 7e-06 -0.0 -0.0 -0.142842 -0.100133 0.175708 -0.112514 -0.108382 0.150272 -0.121604 -0.094312 0.206489 -123.74826 -72.709602 143.037628 57.888065 -46.64291 -3.492192 30.780678 0.570988 0.443812 -10.661982 -4.976425 -3.121042 17.636627 -26.322725 52.411186 -19.46666 -14.395597 29.410381 -1e-06 -8.774821 -0.0 16.360676 -18.185837 6.009415 -0.609776 -1.795654 -3.889327 -4.807088 -11.04681 -2.937855 4e-06 -20.976019 -1e-06 -5.019971 -25.03356 -4.031882 6e-06 0.0 0.0 -10.634534 -5.686971 -3.565585 10.573272 -17.922951 -3.1139 4e-06 -13.821209 -2e-06 -0.501775 -31.181505 -4.027017 -11.295857 -60.120892 6.580029 -13.982714 -7.150198 -2.875043 13.772729 -8.401491 -3.218241 0.347734 -34.211552 0.771653 -0.963031 -17.733368 2.62102 0.0 -1e-06 -1e-06 -17.346418 -20.095219 -4.201782 21.757557 -1.638376 3.866428 2e-06 -6.338823 -1e-06 -1.697589 -22.591745 -6.194005 -1e-06 -2e-06 -1e-06 107.237869 -81.044434 88.843895 68.838875 -61.089603 -28.445845 26.217134 -0.737912 0.117819 5.242119 -7.559184 16.201992 22.182114 -20.375887 49.933315 -16.701813 -16.74353 28.476532 -2e-06 -12.6906 -1e-06 16.334261 -18.114594 2.478458 -0.105918 -1.513855 -4.275879 -5.039042 -5.612871 -2.953557 3e-06 -11.020519 -4e-06 -6.111296 -15.895329 -3.840472 -1e-06 -1e-06 -0.0 -10.283371 -5.680288 -4.341835 11.028292 -11.302404 -2.372632 -1.384269 -14.238579 -6.320123 -0.62544 -26.924187 -3.827601 -4.643376 -50.431713 -3.858793 -13.708525 -7.363474 -3.720938 18.141148 -14.052737 -3.242674 5e-06 -18.787266 -2e-06 -0.429711 -8.45604 2.555505 -1e-06 -1e-06 0.0 -15.923536 -20.094482 -5.473583 30.41921 -7.190824 1.735928 4e-06 -8.162927 -3e-06 -1.861903 -22.861467 -6.167942 -1e-06 -4e-06 -2e-06 172.284134 -12.930038 -1.668267 124.445351 -0.427375 -0.186996 -120.303864 11.542655 -12.827424 -20.045437 1.853593 2.143943 -0.999998 0.0 1e-06 -8.868502 -11.020348 -1.638061 125.396317 -0.274567 0.102774 -120.02063 11.112618 -4.133415 -22.412756 0.975217 1.71001 -1.000003 0.0 0.0 
0.0 0.0 0.0 0.0 -0.0 0.0 1.755717 50.719822 48.979168 88.825508 -4.669123 95.719116 -4.037175 0.610742 0.009939 -12.180984 -0.099849 -0.389757 20.313513 1.526859 -1.767995 52.570232 0.5958 1.210599 -2.817758 0.010164 1.55863 -23.085043 3.482917 -0.659808 8e-06 0.0 -0.0 -0.146459 -0.101618 0.178954 -0.100589 -0.111334 0.155576 -0.111991 -0.094448 0.20837 -124.459953 -72.639175 143.659683 57.664848 -46.627487 -3.512621 30.450571 0.538759 0.431689 -10.675979 -5.014678 -2.833399 17.636631 -26.322741 52.411209 -19.466665 -14.3956 29.410395 -1e-06 -8.774822 -0.0 16.35326 -18.197485 6.00478 -0.609776 -1.795654 -3.889328 -4.80709 -11.046813 -2.937851 5e-06 -20.976021 -1e-06 -5.019971 -25.03356 -4.03188 7e-06 1e-06 -2e-06 -10.634535 -5.68697 -3.565589 10.573275 -17.922951 -3.113901 5e-06 -13.821211 -2e-06 -0.501776 -31.181507 -4.027015 -11.241637 -60.099537 6.509425 -13.982714 -7.150198 -2.875042 13.772729 -8.401493 -3.218243 0.347737 -34.211559 0.771654 -0.963031 -17.733372 2.62102 2e-06 -1e-06 0.0 -17.34642 -20.095221 -4.201782 21.757559 -1.638376 3.866427 2e-06 -6.338823 -2e-06 -1.697589 -22.591751 -6.194007 -0.0 -1e-06 -0.0 106.198967 -81.086655 89.818802 68.331306 -61.140453 -27.91732 25.959602 -0.784695 0.10384 5.291509 -7.720435 16.41382 22.18211 -20.3759 49.933323 -16.701817 -16.743532 28.476534 -4e-06 -12.690602 1e-06 16.322432 -18.127954 2.488904 -0.105919 -1.513855 -4.275881 -5.039042 -5.612871 -2.953556 4e-06 -11.020523 -2e-06 -6.111297 -15.89533 -3.840471 -0.0 0.0 -0.0 -10.283369 -5.680288 -4.341836 11.028296 -11.302406 -2.372632 -1.384268 -14.238579 -6.32012 -0.625434 -26.924187 -3.827599 -4.665737 -50.409409 -3.856949 -13.708525 -7.363475 -3.720938 18.14115 -14.052739 -3.242677 4e-06 -18.787268 2e-06 -0.429709 -8.456043 2.555503 -2e-06 -2e-06 -0.0 -15.923538 -20.094482 -5.473582 30.419214 -7.190826 1.735925 2e-06 -8.162927 -1e-06 -1.861903 -22.861469 -6.16794 -0.0 -2e-06 -1e-06 172.360611 -12.883489 -1.646215 124.317764 -0.419525 -0.187535 -120.272667 11.483066 -12.807943 -20.009459 1.848374 2.143921 -1.000002 0.0 -2e-06 -8.750187 -10.990138 -1.672622 125.238335 -0.284337 0.106245 -119.983971 11.085618 -4.246994 -22.298052 0.969169 1.705913 -1.000002 -0.0 -0.0 
0.0 0.0 0.0 0.0 -0.0 0.0 1.808823 50.697731 49.079098 88.811386 -4.709754 95.7733 -4.132834 0.585372 0.029821 -12.234002 -0.092695 -0.360876 20.071423 1.458901 -1.784862 51.433243 0.475475 1.266286 -2.82607 -0.027555 1.46027 -23.274965 3.397141 -0.769697 7e-06 0.0 -0.0 -0.147626 -0.096624 0.174924 -0.088234 -0.106025 0.151392 -0.105139 -0.08961 0.205318 -125.073753 -72.618439 144.186966 57.333191 -46.679745 -3.483173 30.170626 0.532264 0.422578 -10.687626 -5.056942 -2.623333 17.636627 -26.322737 52.411205 -19.466658 -14.395602 29.410395 -0.0 -8.774822 -2e-06 16.343859 -18.20122 5.999641 -0.609776 -1.795654 -3.889325 -4.807089 -11.046811 -2.937852 3e-06 -20.976017 1e-06 -5.019974 -25.033556 -4.031878 6e-06 -1e-06 -1e-06 -10.634533 -5.68697 -3.565587 10.573272 -17.922951 -3.113898 4e-06 -13.821208 -0.0 -0.501781 -31.181501 -4.027012 -11.146858 -60.080326 6.425814 -13.982712 -7.150197 -2.875041 13.772727 -8.40149 -3.218242 0.347733 -34.211544 0.771656 -0.963032 -17.733368 2.621024 1e-06 -1e-06 -1e-06 -17.346416 -20.095217 -4.201782 21.757557 -1.638376 3.866428 2e-06 -6.338823 -1e-06 -1.69759 -22.591742 -6.194003 1e-06 -4e-06 -2e-06 105.099861 -81.11496 90.844894 67.75531 -61.2892 -27.476103 25.682177 -0.8257 0.091776 5.359773 -7.899792 16.614948 22.182112 -20.375887 49.933308 -16.701813 -16.743525 28.47653 -3e-06 -12.690598 -0.0 16.276958 -18.117754 2.495859 -0.105919 -1.513854 -4.27588 -5.039041 -5.612873 -2.953558 4e-06 -11.02052 -2e-06 -6.111297 -15.895332 -3.840468 0.0 -0.0 0.0 -10.283367 -5.680287 -4.341839 11.028291 -11.302403 -2.372632 -1.38427 -14.238581 -6.320123 -0.625435 -26.924187 -3.827604 -4.679553 -50.34586 -3.856925 -13.708523 -7.363474 -3.720943 18.141148 -14.052739 -3.242676 6e-06 -18.78727 -1e-06 -0.429708 -8.456045 2.555502 -0.0 1e-06 -0.0 -15.923532 -20.094481 -5.473586 30.419205 -7.190823 1.735927 2e-06 -8.162925 -2e-06 -1.861898 -22.861467 -6.167943 -1e-06 -3e-06 -1e-06 172.42099 -12.812716 -1.646354 124.191132 -0.417162 -0.194449 -120.233131 11.402142 -12.790517 -19.856955 1.841005 2.146748 -0.999999 -0.0 -0.0 -8.655414 -10.987239 -1.686522 125.080727 -0.289127 0.11297 -119.934746 11.08256 -4.38052 -22.093422 0.961153 1.698535 -1.000001 -0.0 0.0 
